<?xml version="1.0" encoding="utf-8"?>
<!-- Generator: Adobe Illustrator 19.0.0, SVG Export Plug-In . SVG Version: 6.00 Build 0)  -->
<svg version="1.1" id="Capa_1" xmlns="http://www.w3.org/2000/svg" xmlns:xlink="http://www.w3.org/1999/xlink" x="0px" y="0px"
	 viewBox="-233 35.1 491.9 491.9" style="enable-background:new -233 35.1 491.9 491.9;" xml:space="preserve">
<style type="text/css">
	.st0{fill:#010002;}
</style>
<g>
	<g>
		<polygon class="st0" points="17.4,240.8 -233,240.8 -233,267.6 -211.6,267.6 -211.6,511.2 -34.6,511.2 -34.6,267.6 17.4,267.6 		
			"/>
		<path class="st0" d="M146.8,362.5c0,0,0.1,0,0.2,0c32.6,1,51.3-8.8,54.2-34.6l13.2-119.1c2.5-22.2-15.2-39.1-32.9-45.6l-0.1,0
			c0,0-6.3-2.1-12.1-2.8c-6-0.8-11.9,0.3-11.9,0.3c-13.8,1.6-27.4,11.4-27.4,11.4c-25.4,18.1-64.8,22-117.1,11.6
			c-13.2-2.6-26,5.9-28.6,19.1c-2.6,13.2,5.9,26,19.1,28.6c21.9,4.4,42.3,6.5,61.2,6.5c17.1,0,32.5-1.9,46.9-5.5l-0.1,1.7l-8.4,75.9
			c-44.2,1.6-72.1,10.7-83,27.2C5.2,359.6-18.8,450.2-25.8,478c-3.6,14.4,5.1,28.9,19.5,32.6c2.2,0.5,4.4,0.8,6.6,0.8
			c12,0,23-8.1,26-20.3c12.3-49,29.4-99.7,37.1-115.8C69.8,361.3,112.4,360.6,146.8,362.5z"/>
		<circle class="st0" cx="162.9" cy="102.9" r="54.3"/>
		<path class="st0" d="M251.6,309.8l7.2-93.5c0-0.5-0.2-1-0.5-1.4c-0.4-0.4-0.9-0.6-1.4-0.6h-29.7c-1.1,0-1.9,0.8-2,1.9l-6.7,93.6
			c-0.9,28.9-9.4,64.3-57.8,64.3c-0.7,0-53.6-0.1-53.6-0.1c0,0,0,0,0,0c-0.5,0-1,0.2-1.4,0.6c-0.4,0.4-0.6,0.9-0.6,1.4v28.9
			c0,1.1,0.9,2,2,2l48.6,0v66.5h-15.3c-20,0-36.9,17.6-36.9,38.3c0,1.1,0.9,2,2,2h19.3c1.1,0,2-0.9,2-2c0-7.6,6.3-14.1,13.7-14.1
			h63.3c7.4,0,13.7,6.5,13.7,14.1c0,1.1,0.9,2,2,2h19.3c1.1,0,2-0.9,2-2c0-20.8-16.9-38.3-36.9-38.3h-15.3v-70
			C236.3,401.9,247.4,354.6,251.6,309.8z"/>
		<path class="st0" d="M-29.5,212.3h-91.7l-31-113.8c-0.2-0.8-1-1.3-1.8-1.1l-16.6,4.5c-0.4,0.1-0.7,0.4-0.9,0.7
			c-0.2,0.3-0.3,0.8-0.1,1.1l34.8,127.5c0.2,0.7,0.8,1.1,1.4,1.1h106c0.8,0,1.5-0.7,1.5-1.5v-17.1C-28,213-28.6,212.3-29.5,212.3z"
			/>
	</g>
</g>
<g>
	<path d="M-101.2,139.6c0.8,0,1.3,0.2,1.7,0.5c0.3,0.3,0.5,0.8,0.5,1.7c0,0.7-0.1,1.1-0.4,1.5c-0.4,0.5-1,0.7-1.8,0.7h-12.1
		c-0.7,0-1.3-0.2-1.6-0.5c-0.3-0.3-0.5-0.8-0.5-1.6c0-0.7,0.2-1.3,0.5-1.7c0.3-0.3,0.9-0.5,1.6-0.5H-101.2z M-103,157.4
		c1.8,0,2.6,0.9,2.6,2.6v6.9c0,1.7-0.9,2.6-2.6,2.6h-8.7c-1.8,0-2.6-0.9-2.6-2.6V160c0-1.8,0.8-2.6,2.6-2.6H-103z M-102.1,145.8
		c0.6,0,1.1,0.1,1.4,0.4c0.3,0.3,0.4,0.7,0.4,1.4c0,0.5-0.1,1-0.3,1.2c-0.3,0.4-0.8,0.6-1.5,0.6h-9.8c-0.6,0-1.1-0.1-1.4-0.5
		c-0.3-0.2-0.4-0.7-0.4-1.3c0-0.6,0.1-1.1,0.4-1.4c0.3-0.3,0.8-0.4,1.4-0.4H-102.1z M-102.3,151.5c0.7,0,1.1,0.2,1.4,0.4
		c0.3,0.3,0.4,0.7,0.4,1.4c0,0.6-0.1,1-0.3,1.3c-0.3,0.4-0.8,0.5-1.5,0.5h-9.6c-0.6,0-1.1-0.1-1.4-0.4c-0.3-0.3-0.4-0.7-0.4-1.4
		c0-0.6,0.1-1,0.4-1.4c0.3-0.3,0.8-0.4,1.4-0.4H-102.3z M-102.1,133.9c0.6,0,1,0.1,1.3,0.4c0.3,0.3,0.5,0.8,0.5,1.5
		c0,0.7-0.1,1.1-0.3,1.4c-0.3,0.4-0.8,0.6-1.5,0.6h-9.5c-0.5,0-1-0.1-1.3-0.5c-0.4-0.3-0.5-0.8-0.5-1.5c0-0.8,0.2-1.3,0.5-1.6
		c0.2-0.2,0.6-0.3,1.3-0.3H-102.1z M-104.4,165.1v-3.3c0-0.4-0.2-0.7-0.6-0.7h-4.4c-0.4,0-0.6,0.3-0.6,0.7v3.3
		c0,0.4,0.2,0.6,0.6,0.6h4.4C-104.6,165.7-104.4,165.5-104.4,165.1z M-90.5,134.3v-0.6c0-0.5,0.2-1,0.6-1.4c0.3-0.3,0.8-0.4,1.5-0.4
		c0.8,0,1.3,0.1,1.6,0.4c0.4,0.4,0.7,0.8,0.7,1.4v0.6h7.4c0.6,0,1,0.1,1.3,0.4c0.3,0.2,0.4,0.6,0.4,1.3c0,0.6-0.1,1-0.3,1.3
		c-0.3,0.4-0.7,0.5-1.3,0.5h-7.4v2.1h6.7c0.6,0,1,0.1,1.3,0.4c0.3,0.2,0.4,0.6,0.4,1.3c0,0.5-0.1,0.9-0.3,1.1
		c-0.3,0.4-0.8,0.5-1.3,0.5h-6.7v2.1h7.8c0.6,0,1,0.1,1.3,0.4c0.2,0.2,0.3,0.6,0.3,1.3c0,0.6-0.1,1-0.3,1.2
		c-0.3,0.4-0.8,0.6-1.3,0.6h-19.3c-0.5,0-1-0.1-1.2-0.4c-0.3-0.3-0.4-0.7-0.4-1.4c0-0.5,0.1-1,0.4-1.3c0.3-0.2,0.7-0.3,1.2-0.3h7
		v-2.1h-6.2c-0.6,0-1-0.1-1.3-0.4c-0.3-0.2-0.4-0.6-0.4-1.3c0-0.5,0.1-1,0.4-1.3c0.3-0.2,0.7-0.3,1.3-0.3h6.2v-2.1h-6.7
		c-0.5,0-1-0.1-1.3-0.4c-0.3-0.3-0.4-0.7-0.4-1.4c0-0.5,0.1-1,0.4-1.3c0.3-0.3,0.7-0.4,1.3-0.4H-90.5z M-81.5,150.5
		c2.1,0,3.1,1.2,3.1,3.4v13.1c0,1.3-0.3,2.1-0.9,2.5c-0.7,0.5-1.7,0.8-3,0.8c-2.6,0-4.6-0.4-5.9-1.2c-0.6-0.3-0.9-0.8-1-1.5
		c0-1.3,0.5-1.9,1.5-2c0.3,0,0.5,0.1,0.9,0.2c1.3,0.5,2.6,0.8,3.6,0.8c0.3-0.1,0.5-0.3,0.5-0.7v-2.5h-11.1v4.9
		c0,0.8-0.2,1.3-0.6,1.5c-0.3,0.3-0.8,0.4-1.5,0.4c-0.8,0-1.3-0.2-1.6-0.5c-0.3-0.4-0.5-0.8-0.5-1.4V154c0-2.3,1-3.4,2.9-3.4H-81.5z
		 M-82.7,155.8v-1.1c0-0.4-0.2-0.7-0.5-0.7H-93c-0.6,0-0.8,0.3-0.8,0.7v1.1H-82.7z M-82.7,160.5v-1.6h-11.1v1.6H-82.7z"/>
	<path d="M-59.2,132.4c0.3,0.3,0.5,0.8,0.5,1.5c0,1.5,0,3,0,4.2h4.6c3,0,4.6,1.6,4.6,4.7c0,11.3-0.2,18.3-0.5,21.1
		c-0.2,2.1-0.7,3.4-1.5,4.2c-0.9,1-2.3,1.5-4.2,1.6c-2.3,0-4.1-0.5-5.4-1.3c-0.9-0.3-1.3-1.1-1.3-2.5c0.1-0.5,0.3-1,0.7-1.3
		c0.4-0.3,0.8-0.5,1.4-0.5c0.1,0,0.3,0.1,0.5,0.2c1.4,0.7,2.8,1,4.1,1c0.8-0.2,1.3-1,1.3-2.6c0.2-2.8,0.3-9.1,0.3-19
		c0-0.6-0.1-0.9-0.4-1.1c-0.2-0.1-0.5-0.2-0.9-0.2h-3.3c0,0.4,0,0.8,0,1.1c0,3.2-0.3,6.7-0.9,10.3c-1.1,5.9-2.9,11-5.6,15.3
		c-0.5,0.3-1.1,0.6-1.8,0.7c-0.7,0-1.3-0.2-1.8-0.6c-0.4-0.3-0.6-0.8-0.6-1.5c0-0.5,0.2-1,0.5-1.3c0-0.2,0.3-0.5,0.6-1
		c1.8-2.8,3.1-6.2,4-10.2c0.8-3.6,1.3-7.7,1.3-12.2v-0.6h-3.4c-0.7,0-1.1-0.2-1.5-0.5c-0.3-0.3-0.5-0.9-0.5-1.6
		c0-0.7,0.2-1.2,0.5-1.6c0.3-0.3,0.8-0.5,1.5-0.5h3.4v-4.2c0-0.6,0.2-1.2,0.6-1.6c0.3-0.2,0.9-0.3,1.5-0.4
		C-60.2,132-59.6,132.1-59.2,132.4z M-36,136.8c2.2,0,3.3,1.1,3.3,3.3v25c0,2.2-1.1,3.3-3.3,3.3h-8.3c-2.2,0-3.3-1.1-3.3-3.3v-25
		c0-2.2,1.1-3.3,3.3-3.3H-36z M-37.1,163.1V142c0-0.7-0.3-1-1-1h-4.1c-0.7,0-1,0.3-1,1v21.1c0,0.7,0.3,1,1,1h4.1
		C-37.5,164.1-37.1,163.8-37.1,163.1z"/>
	<path d="M-1.9,135c1.7,0,2.7,0.8,3,2.3c0.6,6.9,2.1,12.5,4.4,16.6c2.5,4.9,5.6,8.9,9.3,12.1c0.4,0.4,0.6,1,0.6,1.8
		c0,0.6-0.3,1.2-0.7,1.6c-0.4,0.5-1.1,0.7-2.1,0.7c-1.1-0.1-2.3-0.8-3.6-2.1c-2.7-2.8-5.3-6.9-7.8-12.2c-2-4.6-3.3-9.7-4.1-15.4
		c0-0.1,0-0.1,0-0.2c-0.2,0.8-0.4,1.5-0.6,2.2c-1.6,5.4-3.6,10.1-6.1,14.2c-3.1,5.4-6.3,9.7-9.5,12.7c-0.4,0.5-0.9,0.8-1.5,0.8
		c-0.7,0-1.2-0.2-1.5-0.6c-0.4-0.3-0.6-0.8-0.6-1.3c0-1,0.4-2,1.3-3.1c3-3.5,5.9-7.4,8.5-11.8c2.4-4.4,4.4-8.9,5.8-13.6h-7.1
		c-0.8,0-1.4-0.2-1.7-0.7c-0.3-0.4-0.5-1-0.5-1.7s0.3-1.3,0.7-1.8c0.3-0.3,0.8-0.5,1.6-0.5H-1.9z"/>
	<path d="M30.1,161.4c0.5,0.4,0.8,0.9,0.8,1.6c0,0.4-0.2,0.9-0.5,1.5c-1.1,2.2-1.9,3.6-2.6,4.4c-0.5,0.9-1.2,1.3-2,1.3
		c-0.6,0-1.1-0.2-1.7-0.5c-0.5-0.3-0.8-0.9-0.8-1.6c0-0.3,0.1-0.5,0.5-1c1.3-1.5,2.3-3.3,3.3-5.1c0.1-0.3,0.3-0.5,0.5-0.7
		c0.2-0.2,0.5-0.3,0.8-0.3C29.1,161,29.7,161.1,30.1,161.4z M34.8,134c1.9,0,2.9,1,2.9,3v20.1c0,2-1,3-2.9,3h-7.2c-2,0-3-1-3-3V137
		c0-2,1-3,3-3H34.8z M33.8,145v-6.4c0-0.4-0.2-0.7-0.6-0.7h-3.9c-0.5,0-0.7,0.3-0.7,0.7v6.4H33.8z M33.8,155.4v-6.5h-5.2v6.5
		c0,0.5,0.2,0.7,0.7,0.7h3.9C33.6,156.1,33.8,155.9,33.8,155.4z M37.1,162.1c0.7,0.5,1.5,1.6,2.6,3.4c0.6,1,1,1.9,1,2.7
		c0,0.5-0.2,0.9-0.5,1.2c-0.4,0.4-1,0.6-1.7,0.6c-0.5,0-0.8-0.1-1-0.3c-0.3-0.1-0.4-0.4-0.6-0.7c-0.7-1.2-1.7-2.8-3.2-5.1
		c-0.1-0.2-0.2-0.3-0.2-0.6c0-0.2,0-0.5,0.2-0.8c0.2-0.3,0.5-0.6,0.9-0.8c0.3-0.1,0.6-0.2,1-0.2C36.1,161.6,36.6,161.8,37.1,162.1z
		 M59.3,134.4c0.5,0.4,0.8,1.3,0.8,2.8c0,2.6,0,4.6-0.1,6.1c-0.2,2.1-0.8,3.4-1.8,4c-0.7,0.5-1.7,0.8-3,0.8c-2.6,0-4.4-0.4-5.4-1.1
		c-0.6-0.4-0.8-1-0.8-2c0-0.4,0.3-0.8,0.6-1.2c0.3-0.3,0.7-0.5,1.2-0.5c0.2,0,0.5,0.1,0.9,0.2c0.9,0.4,1.8,0.6,2.7,0.6
		c0.8,0,1.3-0.4,1.5-1.2c0.1-1,0.1-2.6,0.1-4.9c0-0.3-0.1-0.5-0.3-0.5h-6.1c0,1-0.2,1.9-0.4,2.6c-0.5,1.8-1.2,3.2-2.1,4.4
		c-1.3,1.6-2.9,2.8-4.8,3.6c-0.6,0.3-1.2,0.4-1.9,0.4c-0.8,0-1.3-0.3-1.6-0.8c-0.3-0.3-0.3-0.8-0.3-1.2c0-0.8,0.4-1.3,1.2-1.6
		c2.3-0.9,3.8-2.1,4.6-3.6c0.7-1.2,1-2.5,1.1-3.8h-4.7c-1.1,0-1.6-0.6-1.6-1.9c0-1.3,0.5-2,1.6-2h16C57.9,133.7,58.7,134,59.3,134.4
		z M56.7,148.9c1.9,0,2.9,1,2.9,2.9v5.7c0,2-1,2.9-2.9,2.9H43c-2,0-2.9-1-2.9-2.9v-5.7c0-1.9,1-2.9,2.9-2.9H56.7z M47.1,162
		c0.6,0.5,1.5,1.6,2.6,3.4c0.6,1,1,1.9,1,2.7c0,0.5-0.2,0.9-0.5,1.2c-0.4,0.4-0.9,0.6-1.6,0.6c-0.5,0-0.8-0.1-1.1-0.3
		c-0.2-0.1-0.4-0.4-0.5-0.7c-0.7-1.2-1.8-2.8-3.2-5.1c-0.2-0.2-0.2-0.3-0.2-0.6c0-0.2,0-0.5,0.2-0.8c0.2-0.3,0.5-0.6,0.9-0.8
		c0.3-0.1,0.6-0.2,1-0.2C46.1,161.4,46.6,161.6,47.1,162z M55.9,156.3v-3.1c0-0.4-0.3-0.6-0.7-0.6H44.5c-0.5,0-0.7,0.2-0.7,0.6v3.1
		c0,0.4,0.2,0.6,0.7,0.6h10.8C55.7,156.9,55.9,156.7,55.9,156.3z M56.4,161.7c0.5,0.4,1.3,1,2.1,1.9c1.6,2.1,2.4,3.6,2.5,4.6
		c0,0.6-0.2,1-0.5,1.4c-0.4,0.3-1,0.5-1.8,0.5c-0.7,0-1.2-0.4-1.6-1c-1-1.7-2.2-3.2-3.5-4.7c-0.4-0.5-0.6-0.8-0.6-1.1
		c0-0.7,0.3-1.2,0.9-1.6c0.4-0.3,0.8-0.4,1.4-0.4C55.6,161.3,56,161.5,56.4,161.7z"/>
	<path d="M78.7,134v7.9h12.6v-8.2c0-0.5,0.2-1,0.6-1.5c0.3-0.3,0.8-0.4,1.6-0.4c0.8,0,1.3,0.2,1.6,0.4c0.4,0.4,0.7,0.9,0.7,1.5v8.2
		h8.5c0.8,0,1.3,0.2,1.6,0.5c0.3,0.3,0.5,0.8,0.5,1.7c0,0.7-0.1,1.1-0.3,1.4c-0.4,0.5-1,0.8-1.8,0.8H78.7v2.1c0,1.5-0.1,3-0.2,4.4
		h19.1c1.7,0,2.6,0.8,2.6,2.4v13.7c-0.1,1.1-0.8,1.7-2.3,1.8c-1.5-0.1-2.2-0.7-2.3-1.8v-11.3c0-0.4-0.1-0.6-0.3-0.7H78.1
		c-0.7,4.3-1.9,8.3-3.6,12.1c-0.5,1-1.3,1.5-2.4,1.6c-0.8,0-1.5-0.3-1.9-0.8c-0.3-0.3-0.4-0.8-0.4-1.4c0-0.3,0.2-0.9,0.6-1.9
		c2.6-6.3,4-12.3,4-18.2V134c0.1-1.1,0.8-1.7,2.1-1.8C77.9,132.3,78.7,132.9,78.7,134z"/>
</g>
<path d="M-24.7,109.4c-0.6,1.1-1.5,2-2.6,2.5c-1.2,0.5-2.4,0.6-3.6,0.3c-1.2-0.3-2.1-1.1-2.6-2.2c-0.5-1.1-0.5-2.2,0.1-3.3
	c0.5-1.1,1.4-2,2.6-2.5c1.1-0.5,2.3-0.6,3.6-0.3c1.2,0.4,2.1,1.1,2.6,2.2C-24.1,107.1-24.2,108.3-24.7,109.4z M-30.5,98.1
	c0.5,1.5,0,2.6-1.7,3.3c-1.5,0.7-2.6,0.3-3.4-1.1l-8-14.9c-1.5-2.8-1-4.9,1.8-6.1c1.2-0.5,2.3-0.5,3.4-0.1c1,0.5,1.8,1.4,2.3,2.8
	L-30.5,98.1z"/>
<path d="M6.8,102.8c-0.7,1.1-1.6,1.9-2.7,2.4c-1.2,0.5-2.4,0.5-3.6,0.2c-1.2-0.3-2-1.1-2.5-2.3c-0.5-1.1-0.4-2.2,0.2-3.3
	c0.6-1.1,1.5-1.9,2.7-2.4c1.2-0.5,2.4-0.5,3.6-0.1c1.2,0.4,2,1.1,2.5,2.2C7.5,100.5,7.4,101.7,6.8,102.8z M1.5,91.3
	c0.5,1.5-0.1,2.6-1.8,3.3c-1.5,0.6-2.6,0.2-3.3-1.2l-7.5-15.2c-1.5-2.9-0.8-4.9,2-6.1c1.2-0.5,2.3-0.4,3.4,0c1,0.5,1.7,1.5,2.2,2.9
	L1.5,91.3z"/>
<path d="M38.6,110.5c-0.7,1.1-1.6,1.9-2.8,2.3c-1.2,0.4-2.4,0.4-3.6,0c-1.2-0.4-2-1.2-2.4-2.4c-0.4-1.1-0.3-2.2,0.4-3.3
	c0.6-1.1,1.5-1.9,2.8-2.3c1.2-0.4,2.4-0.4,3.6,0c1.2,0.5,2,1.2,2.4,2.3C39.3,108.3,39.2,109.4,38.6,110.5z M33.7,98.8
	c0.4,1.5-0.2,2.6-1.9,3.2c-1.6,0.6-2.7,0.1-3.3-1.3l-6.9-15.5c-1.3-2.9-0.6-5,2.2-6c1.2-0.4,2.4-0.3,3.4,0.2c1,0.5,1.7,1.6,2.1,3
	L33.7,98.8z"/>
</svg>
